<svg width="83" height="75" viewBox="0 0 83 75" fill="none" xmlns="http://www.w3.org/2000/svg">
<g clip-path="url(#clip0_424_359)">
<path d="M37.9836 47.6824L39.1448 44.8451H39.6386V48.2036H24.0732V48.0008L25.9608 47.5666V28.5746L24.0732 28.1403V27.9376H39.3483V31.3249H38.8545L37.6929 28.4587H28.3712V37.4627H35.8927L36.4443 35.2624H36.8798V40.1839H36.4443L35.8927 37.9839H28.3712V47.6824H37.9836ZM43.1882 47.7691L55.6756 28.4587H45.076L43.8564 31.3249H43.3916V27.9376H58.202V28.3719L45.7439 47.6824H56.779L57.9986 44.8451H58.4634V48.2036H43.1882V47.7691Z" fill="#2D2926"/>
<path d="M29.8501 0.000587527C29.349 2.37522 28.3701 4.65518 26.2621 6.03229C25.231 6.67394 23.9846 7.1231 22.7619 7.08729C22.0072 7.11768 21.5172 7.79275 21.0329 8.30704C20.9523 8.38799 20.8715 8.46873 20.7902 8.54898C20.8326 8.53525 20.8751 8.52155 20.9188 8.50739C23.3465 7.75032 25.9674 7.58504 28.475 8.06511C28.326 9.27338 26.707 10.7383 25.8055 11.4522C24.0388 12.7453 22.0152 13.294 19.8334 13.0383C19.0865 12.9222 18.3627 12.7462 17.6607 12.4634C17.4215 12.4078 17.3563 12.455 17.1501 12.5812C17.0191 12.7121 17.0191 12.7121 16.902 12.8692C16.8565 12.9275 16.811 12.9859 16.764 13.0461C16.7163 13.1089 16.6684 13.1718 16.6192 13.2365C16.5695 13.3011 16.5197 13.3657 16.4685 13.4322C15.8443 14.2498 15.2645 15.0942 14.7233 15.9683C14.7919 15.9216 14.8605 15.8748 14.9312 15.8266C17.0484 14.4091 19.5412 14.0358 22.0491 14.0228C22.1386 14.0222 22.1386 14.0222 22.23 14.0216C22.5939 14.0227 22.9388 14.0542 23.2979 14.1135C23.2522 14.4881 23.0884 14.7706 22.8934 15.0863C22.8609 15.1394 22.8285 15.1925 22.795 15.2471C21.435 17.4355 19.612 19.0587 17.0692 19.678C15.733 19.9299 13.7914 19.9797 12.5392 19.3554C12.517 19.4263 12.4949 19.4973 12.472 19.5703C12.3843 19.8198 12.2824 20.0395 12.1578 20.2725C12.1156 20.352 12.0735 20.4316 12.03 20.5136C11.9861 20.5955 11.9423 20.6773 11.8971 20.7617C11.5039 21.4976 11.5039 21.4976 11.164 22.2587C11.2455 22.1972 11.3269 22.1358 11.4108 22.0725C13.3224 20.6606 16.0218 19.5167 18.4443 19.5167C18.0916 21.697 16.9725 24.0167 15.1466 25.3467C14.8528 25.5435 14.5479 25.7172 14.2379 25.8877C14.1028 25.9679 13.9679 26.0483 13.8335 26.1296C13.8949 26.1063 13.9563 26.0831 14.0196 26.0591C14.1 26.0291 14.1804 25.9992 14.2632 25.9683C14.343 25.9384 14.4227 25.9085 14.5049 25.8776C14.7233 25.807 14.7233 25.807 14.966 25.807C15.0493 28.1548 14.575 30.5582 12.9418 32.339C11.633 33.6927 9.84036 34.3239 8.00924 34.5974C7.87443 34.5989 7.73958 34.5991 7.60477 34.5974C7.58591 36.4542 7.58591 36.4542 7.68565 38.307C7.71224 38.232 7.73884 38.1566 7.76625 38.0792C8.5883 35.8478 10.3849 34.3015 12.2965 32.9845C12.3649 32.9372 12.4333 32.8899 12.5038 32.8411C12.6757 32.7274 12.6757 32.7274 12.9436 32.5812C13.0237 32.6079 13.1038 32.6345 13.1863 32.6619C13.2423 32.7976 13.2423 32.7976 13.278 32.9737C13.2914 33.0381 13.3048 33.1024 13.3187 33.1687C13.3317 33.2376 13.3448 33.3066 13.3582 33.3776C13.3721 33.4479 13.386 33.5181 13.4003 33.5905C13.4958 34.0867 13.5744 34.5755 13.5908 35.0812C13.594 35.1804 13.5973 35.2795 13.6006 35.3816C13.6423 37.3228 13.142 39.0348 11.8112 40.4844C10.9048 41.4137 9.82083 41.9415 8.63909 42.4334C8.47266 42.5063 8.47266 42.5063 8.25192 42.6619C8.32789 42.9901 8.40407 43.3186 8.4805 43.6468C8.50636 43.758 8.53218 43.8693 8.55792 43.9806C8.71209 44.6471 8.87339 45.3102 9.06083 45.9682C9.07761 45.8785 9.09439 45.7887 9.11169 45.6961C9.5653 43.4056 10.8465 41.5735 12.4583 39.92C12.531 39.8436 12.6037 39.7675 12.6785 39.689C12.8628 39.5168 12.8628 39.5168 13.0246 39.5168C14.131 41.7411 14.869 44.0038 14.0762 46.452C14.0537 46.5256 14.0313 46.5989 14.0082 46.6742C13.4469 48.2809 12.0395 49.338 10.6787 50.2425C10.819 50.538 10.9599 50.8334 11.1013 51.1285C11.1491 51.2285 11.1968 51.3288 11.2444 51.4288C11.5385 52.0485 11.8476 52.6471 12.2156 53.2263C12.216 53.1816 12.2163 53.1366 12.2166 53.0904C12.2483 50.6175 13.024 48.4288 14.3997 46.3714C14.4798 46.3714 14.5599 46.3714 14.6424 46.3714C14.7923 46.5327 14.9244 46.6908 15.057 46.8654C15.0962 46.9165 15.1354 46.9675 15.1759 47.02C16.655 48.9668 17.5202 51.0116 17.2067 53.4999C17.144 53.8274 17.0379 54.1295 16.9074 54.4362C16.8731 54.5179 16.8387 54.5999 16.8034 54.6844C16.5155 55.3077 16.122 55.8369 15.694 56.3714C15.6111 56.4781 15.6111 56.4781 15.5265 56.5869C15.3322 56.8207 15.1228 56.9894 14.8851 57.1781C15.0927 57.5521 15.3522 57.8718 15.6232 58.2013C15.6932 58.2866 15.6932 58.2866 15.7646 58.3739C16.2299 58.9383 16.7094 59.4866 17.2309 60.0006C17.2085 59.9306 17.1861 59.8605 17.163 59.7883C17.1337 59.6954 17.1044 59.6024 17.0742 59.5066C17.0451 59.4151 17.016 59.3232 16.9861 59.2288C16.5075 57.5464 16.7991 55.5281 17.2309 53.8714C17.246 53.8101 17.2611 53.7489 17.2766 53.6859C17.4344 53.0499 17.4344 53.0499 17.5545 52.8232C17.7045 52.7609 17.7045 52.7609 17.8781 52.7425C18.0169 52.813 18.0169 52.813 18.1558 52.9271C18.2078 52.9693 18.2598 53.0116 18.3133 53.0549C18.3682 53.1013 18.4231 53.1482 18.4797 53.1961C18.5655 53.2679 18.5655 53.2679 18.6531 53.3408C20.3016 54.7348 21.7969 56.495 22.0213 58.7249C22.1366 60.3654 21.6357 61.8038 20.7093 63.1457C21.1267 64.1334 22.8208 64.9925 23.7023 65.5651C23.6612 65.4985 23.6202 65.432 23.5778 65.3637C22.5776 63.7063 22.23 61.9978 22.2357 60.0707C22.2362 59.8936 22.2357 59.7168 22.2352 59.5397C22.2353 59.4267 22.2354 59.3133 22.2355 59.2003C22.2356 59.0982 22.2357 58.9964 22.2358 58.8915C22.2443 58.6795 22.2635 58.508 22.3272 58.307C22.6927 58.358 22.9975 58.4999 23.3231 58.6651C23.3794 58.6932 23.4357 58.7218 23.4937 58.751C24.417 59.2267 25.2716 59.7436 26.0213 60.4661C26.2064 60.6485 26.2064 60.6485 26.4122 60.8013C27.4075 61.6232 28.1753 63.0823 28.3132 64.3556C28.3828 65.3394 28.3368 66.2573 28.0683 67.208C27.9907 67.4968 27.9451 67.7693 27.9087 68.0651C27.9612 68.089 28.0136 68.113 28.0677 68.1376C29.068 68.594 30.0679 69.0506 31.0635 69.5168C31.0902 69.4901 31.1169 69.4637 31.1444 69.4362C31.0877 69.3813 31.031 69.3263 30.9725 69.2697C29.4003 67.689 28.2323 65.0785 28.2323 62.8232C28.752 62.8683 29.2253 62.9587 29.7237 63.1105C29.7935 63.1316 29.8633 63.1528 29.9352 63.1746C32.0714 63.8454 34.1807 64.9887 35.3022 66.9975C35.9734 68.3503 36.1602 69.807 35.9172 71.2908C37.4327 71.7616 38.9744 72.0982 40.5278 72.42C40.503 72.5982 40.478 72.7767 40.4529 72.9549C40.4388 73.0542 40.4246 73.1535 40.4105 73.2556C40.3547 73.6253 40.2837 73.9904 40.2042 74.3556C39.7486 74.3105 39.3439 74.2239 38.9109 74.0778C38.8515 74.0584 38.7918 74.0387 38.7304 74.0183C38.5389 73.9549 38.3479 73.8908 38.1568 73.8263C38.0918 73.8045 38.0272 73.783 37.9601 73.7605C36.9906 73.4362 36.038 73.088 35.1081 72.6619C35.0238 72.7485 35.0238 72.7485 34.9378 72.8366C33.6301 74.1369 31.9267 75.0014 30.0593 75.0197C29.9943 75.0207 29.9294 75.0214 29.8624 75.0221C27.228 75.0475 27.228 75.0475 25.9673 74.6781C25.8307 74.6404 25.6941 74.6031 25.5575 74.5658C24.7063 74.3263 23.8778 74.0334 23.0552 73.7102C23.0552 73.4683 23.0552 73.4682 23.1632 73.3376C24.8645 71.8267 26.9504 70.8013 29.203 70.4844C29.0233 70.3052 28.8676 70.2302 28.6383 70.1218C28.5575 70.0834 28.4766 70.045 28.3933 70.0056C28.3085 69.9658 28.2236 69.9256 28.1363 69.8848C28.0113 69.8253 28.0113 69.8253 27.8839 69.7647C27.7222 69.6883 27.5603 69.6126 27.3979 69.5373C27.2665 69.476 27.1358 69.4133 27.0066 69.3471C26.8465 69.2644 26.8465 69.2644 26.6145 69.1943C26.4263 69.2506 26.4263 69.2506 26.2757 69.3908C24.7315 70.5478 22.7461 70.7992 20.8711 70.5651C20.3779 70.488 19.8964 70.3732 19.415 70.2425C19.3194 70.2172 19.2238 70.1918 19.1253 70.1658C17.7746 69.7605 16.4777 69.0837 15.2845 68.3422C15.219 68.3021 15.1536 68.2616 15.0861 68.22C14.9977 68.1633 14.9977 68.1633 14.9075 68.1052C14.856 68.0721 14.8045 68.039 14.7514 68.0049C14.7154 67.9714 14.6794 67.9383 14.6424 67.9038C14.6424 67.8239 14.6424 67.7443 14.6424 67.6619C16.8831 66.5193 18.9135 65.9447 21.4373 65.8876C20.9412 65.4788 20.4413 65.0753 19.9358 64.6781C19.8866 64.6394 19.8375 64.6006 19.7869 64.5605C19.5323 64.3587 19.5323 64.3587 19.2532 64.1943C19.0208 64.2644 18.7941 64.3394 18.5657 64.4211C16.5511 65.1394 14.4278 64.9749 12.4904 64.0855C12.3442 64.0154 12.199 63.9436 12.0538 63.8714C11.9754 63.8334 11.897 63.7954 11.8162 63.7563C11.1778 63.4288 10.6036 63.0109 10.0315 62.5813C9.95752 62.526 9.88345 62.4704 9.8072 62.4133C9.09757 61.8577 8.47666 61.2077 7.84744 60.5651C7.87415 60.4852 7.90085 60.4056 7.92832 60.3232C8.09775 60.2538 8.09775 60.2538 8.32111 60.1992C8.40333 60.1792 8.48556 60.1587 8.57025 60.138C8.65707 60.1175 8.74388 60.0971 8.83331 60.0764C8.91606 60.0556 8.99881 60.0348 9.08404 60.0137C10.1248 59.7619 11.1401 59.6485 12.2106 59.6528C12.3167 59.6531 12.4228 59.6531 12.5321 59.6535C13.2693 59.6609 13.9318 59.7302 14.6424 59.92C14.8039 59.9485 14.9656 59.976 15.1277 60.0006C15.0661 59.9302 15.0045 59.8601 14.941 59.7876C14.881 59.7186 14.881 59.7186 14.8199 59.6482C14.731 59.5461 14.6416 59.4447 14.5515 59.344C14.336 59.0982 14.1438 58.8661 13.993 58.5753C13.8269 58.2771 13.7126 58.0978 13.429 57.9038C12.9107 57.8366 12.3832 57.9559 11.8717 58.0362C10.0025 58.2799 8.05251 57.463 6.58351 56.3756C5.2589 55.3373 4.2112 54.0721 3.2922 52.6721C3.26151 52.6253 3.23082 52.5788 3.1992 52.5309C3.06043 52.3126 2.99391 52.1999 2.99391 51.9362C3.60583 51.8401 4.21579 51.8359 4.83419 51.8352C4.91758 51.8352 4.91758 51.8352 5.00263 51.8352C6.96962 51.8383 8.62383 52.2207 10.3551 53.1457C10.2687 52.8873 10.1569 52.657 10.0363 52.4123C9.9886 52.3151 9.94092 52.2175 9.89331 52.1204C9.81822 51.9672 9.74302 51.8144 9.66748 51.6616C9.59447 51.514 9.5221 51.3658 9.4498 51.2179C9.40625 51.1295 9.36271 51.0411 9.31785 50.9499C9.2226 50.7263 9.2226 50.7263 9.2226 50.4844C9.14722 50.4862 9.07182 50.4883 8.99415 50.4901C6.82997 50.5207 4.94001 49.8651 3.35006 48.3718C1.84599 46.908 0.878201 44.9066 0.324463 42.9038C0.324463 42.8506 0.324463 42.7975 0.324463 42.7425C2.80988 42.7957 5.40717 43.6802 7.28121 45.3232C7.26065 45.2267 7.2401 45.1299 7.21894 45.0306C7.04588 44.2151 6.8768 43.3989 6.71494 42.5813C6.61622 42.5577 6.51747 42.5341 6.41571 42.5101C4.43039 42.0232 2.74693 41.1024 1.61874 39.3556C1.56984 39.2809 1.52093 39.2066 1.47054 39.1299C0.550312 37.6506 0.0595435 35.7711 0.0767305 34.0379C0.0772779 33.9321 0.0772779 33.9321 0.0778363 33.8242C0.0787811 33.6518 0.0802317 33.4794 0.0817861 33.307C0.69778 33.4012 1.23335 33.588 1.80075 33.8413C1.88215 33.8773 1.96356 33.9132 2.04743 33.9503C3.01447 34.384 3.88817 34.8675 4.69263 35.5651C4.79636 35.6524 4.79636 35.6524 4.90214 35.7415C5.35218 36.1302 5.71025 36.5436 6.06782 37.0168C6.06983 36.9457 6.07188 36.8742 6.07396 36.801C6.08166 36.5359 6.08972 36.2704 6.09794 36.0052C6.10141 35.8908 6.1048 35.776 6.10805 35.6616C6.11274 35.4964 6.1179 35.3313 6.12313 35.166C6.12606 35.0667 6.12903 34.9675 6.1321 34.8652C6.14651 34.633 6.17671 34.4203 6.22962 34.1942C6.17476 34.1867 6.11991 34.1792 6.0634 34.1714C4.77115 33.8571 3.50654 32.7588 2.81633 31.6623C2.49784 31.1329 2.21602 30.5885 2.0232 30.0006C1.98989 29.8991 1.98989 29.8991 1.95589 29.7955C1.4179 27.9222 1.59456 25.9211 1.94231 24.0329C3.07528 24.0329 4.52995 25.4957 5.30062 26.2449C6.05443 27.0018 6.5471 27.8111 6.95761 28.7909C7.17483 28.2335 7.35796 27.6673 7.53904 27.0974C7.56881 27.0041 7.59859 26.9109 7.62924 26.8148C7.70214 26.5864 7.77486 26.3581 7.84744 26.1296C7.75501 26.0637 7.75501 26.0637 7.66071 25.9964C6.2282 24.9534 5.22549 23.7032 4.88671 21.9259C4.69782 20.5703 4.78725 19.1339 5.17799 17.8232C5.20529 17.7308 5.20529 17.7308 5.23316 17.6366C5.48191 16.8144 5.79314 16.0244 6.1487 15.2425C6.53308 15.4167 6.81132 15.6856 7.11941 15.9683C7.16444 16.0089 7.20951 16.0494 7.25592 16.0912C8.71757 17.4713 9.61559 19.2469 9.95063 21.2103C9.98892 21.133 10.0272 21.0558 10.0666 20.9762C10.1206 20.8677 10.1747 20.7593 10.2287 20.6508C10.2713 20.5648 10.2713 20.5648 10.3148 20.4772C10.4727 20.1608 10.6356 19.8488 10.8085 19.5404C10.8425 19.4791 10.8766 19.4178 10.9116 19.3546C10.978 19.2356 11.0454 19.1172 11.1139 18.9995C11.2906 18.7016 11.2906 18.7016 11.2828 18.37C11.1472 18.2061 11.0114 18.0434 10.8708 17.8837C10.5886 17.5362 10.3705 17.1816 10.1681 16.7849C10.1417 16.7346 10.1155 16.6844 10.0884 16.6326C9.70329 15.8505 9.58317 15.043 9.59168 14.179C9.59225 14.0914 9.59278 14.0039 9.59338 13.9137C9.60824 13.1625 9.7218 12.4887 9.95063 11.7748C9.97712 11.689 10.0036 11.6032 10.0309 11.5149C10.5323 10.0719 11.4212 8.76039 12.3774 7.58123C12.6386 7.69081 12.7603 7.79292 12.9073 8.03327C12.9617 8.12144 12.9617 8.12144 13.0171 8.21141C13.0733 8.30613 13.0733 8.30613 13.1307 8.40282C13.1698 8.46785 13.2089 8.53289 13.2492 8.59989C14.1171 10.0661 14.6099 11.5222 14.7233 13.2264C15.4799 12.2385 15.4799 12.2385 16.1793 11.2103C16.1441 11.1633 16.1088 11.1163 16.0725 11.0679C15.0617 9.6806 14.6068 8.16609 14.8443 6.44905C15.1186 4.74841 15.9075 3.26452 16.9883 1.93607C17.052 1.85623 17.1157 1.77639 17.1813 1.69414C17.4791 1.32515 17.7807 0.977048 18.1208 0.645749C18.4794 0.764129 18.5968 1.02958 18.7578 1.34635C18.7997 1.42713 18.7997 1.42713 18.8424 1.50953C19.5312 2.86395 19.9983 4.27183 19.9914 5.80201C19.9917 5.87099 19.992 5.93996 19.9924 6.01102C19.9917 6.43412 19.9617 6.83997 19.9004 7.25866C20.542 6.74866 20.7779 6.35975 20.8973 5.5544C21.1546 4.08634 22.225 2.91946 23.3958 2.07027C25.1362 0.882372 27.7135 -0.168319 29.8501 0.000587527ZM12.5695 26.4421C11.7567 26.6668 10.9901 26.7058 10.1478 26.6992C10.0585 26.6988 9.96921 26.6985 9.87717 26.6981C9.659 26.6972 9.4408 26.6958 9.2226 26.6942C8.91934 27.3624 8.69563 28.0375 8.51116 28.7464C8.46878 28.9089 8.42512 29.071 8.38129 29.233C8.2101 29.8494 8.2101 29.8494 8.171 30.4845C8.32796 30.2898 8.48411 30.0949 8.63647 29.8966C9.93548 28.224 11.5515 27.2985 13.429 26.3716C13.1096 26.2654 12.8824 26.3551 12.5695 26.4421ZM8.09012 30.4845C8.171 30.6457 8.171 30.6457 8.171 30.6457L8.09012 30.4845Z" fill="#2D2926"/>
<path d="M53.1472 0.00152227C53.7967 -0.0277997 54.3692 0.048598 54.9975 0.208175C55.0855 0.230033 55.1731 0.251889 55.2635 0.274409C57.7118 0.898942 60.1386 1.8627 61.545 4.08923C61.894 4.71923 62.1702 5.46233 62.2327 6.18223C62.3037 6.52856 62.4396 6.65413 62.6975 6.89163C62.772 6.96138 62.8462 7.03114 62.9228 7.10304C62.9804 7.15469 63.0379 7.20635 63.0969 7.25959C63.0775 7.12378 63.0775 7.12378 63.0577 6.98522C62.8327 5.17515 63.2234 3.49921 63.987 1.85636C64.0128 1.80039 64.0385 1.74442 64.0654 1.68676C64.2469 1.30885 64.4627 0.981904 64.7149 0.646685C65.9595 1.16279 67.0859 3.31315 67.5835 4.48247C68.2768 6.17846 68.4439 7.96004 67.7735 9.69406C67.5747 10.141 67.3144 10.537 67.0343 10.9371C66.8994 11.1201 66.8994 11.1201 66.8182 11.2918C66.8478 11.3304 66.8775 11.369 66.9082 11.4087C67.0453 11.5864 67.1819 11.7642 67.3186 11.9421C67.3652 12.0027 67.4122 12.0634 67.4603 12.1259C67.7389 12.4882 68.0102 12.8542 68.274 13.2273C68.2821 13.1356 68.2899 13.044 68.298 12.9495C68.4813 10.998 69.2015 9.11015 70.4581 7.58216C70.6994 7.6873 70.8378 7.78423 70.9915 7.99673C71.0293 8.04892 71.067 8.1011 71.1063 8.15487C71.1458 8.21205 71.1857 8.26923 71.2267 8.32814C71.2687 8.38828 71.3107 8.44842 71.3538 8.5104C72.7846 10.6065 73.7661 12.9438 73.3176 15.526C73.0831 16.4889 72.6151 17.3081 71.9709 18.0563C71.8345 18.2258 71.7409 18.3441 71.6717 18.5499C71.7416 18.7624 71.7416 18.7624 71.8744 18.9793C71.9211 19.0623 71.9673 19.1453 72.0154 19.2308C72.0655 19.3172 72.1157 19.4035 72.1672 19.4924C72.2637 19.6623 72.3597 19.8323 72.4558 20.0025C72.5021 20.0839 72.548 20.1653 72.5953 20.2492C72.7648 20.5623 72.9107 20.8825 73.0467 21.2112C73.0654 21.1176 73.0841 21.0241 73.1032 20.9277C73.4211 19.3876 74.0211 18.046 75.0691 16.8563C75.1393 16.7765 75.2096 16.6967 75.282 16.6144C75.7168 16.1282 76.1618 15.6346 76.687 15.2435C76.7404 15.2435 76.7937 15.2435 76.8488 15.2435C77.7713 17.4579 77.7713 17.4579 77.9811 18.4693C78.002 18.5634 78.002 18.5634 78.0235 18.6594C78.4078 20.5253 78.2443 22.4723 77.2532 24.1144C77.0543 24.4005 76.8403 24.663 76.6061 24.9209C76.5546 24.978 76.5027 25.035 76.4497 25.0938C76.1668 25.3904 75.8719 25.6356 75.5335 25.8675C75.4615 25.9171 75.3894 25.9668 75.3152 26.0179C75.2608 26.055 75.2061 26.0923 75.1499 26.1306C75.2506 26.4448 75.3513 26.759 75.4523 27.0731C75.4865 27.1799 75.5204 27.2867 75.5547 27.3935C75.6041 27.5474 75.6536 27.7014 75.703 27.8553C75.7475 27.994 75.7475 27.994 75.7927 28.1356C75.8676 28.3582 75.9496 28.575 76.0396 28.7918C76.1 28.6648 76.1 28.6648 76.1615 28.5351C76.4702 27.8943 76.7778 27.3117 77.2532 26.7757C77.3062 26.7125 77.3588 26.6493 77.4135 26.5842C78.2312 25.6337 79.201 24.9368 80.2635 24.2839C80.3885 24.2071 80.5121 24.1282 80.6354 24.0489C80.8123 23.9531 80.8123 23.9531 81.055 23.9531C81.5282 26.6875 81.6441 29.5416 80.0081 31.9238C79.2413 32.9278 78.1853 33.7209 77.0106 34.1951C76.9304 34.1951 76.8502 34.1951 76.7679 34.1951C76.7806 34.2499 76.7933 34.3047 76.8068 34.3611C76.8548 34.6319 76.8661 34.892 76.8742 35.1669C76.876 35.2199 76.8778 35.2731 76.8795 35.328C76.8848 35.4963 76.8894 35.6646 76.8944 35.8333C76.8979 35.9481 76.9014 36.0625 76.9049 36.1773C76.9134 36.4576 76.9215 36.7375 76.9297 37.0178C76.9816 36.9523 77.0335 36.8868 77.0872 36.8195C78.4922 35.0885 80.4983 33.8548 82.6729 33.308C82.7531 33.308 82.8333 33.308 82.9156 33.308C82.9791 34.8664 82.6994 36.2752 82.1876 37.7435C82.1629 37.8167 82.1382 37.89 82.1128 37.9657C81.4961 39.653 80.1374 41.1474 78.5098 41.9065C77.7872 42.2171 77.0483 42.4079 76.2826 42.5822C76.2017 42.9467 76.1209 43.3111 76.0407 43.6759C76.0131 43.7998 75.9856 43.9241 75.958 44.0481C75.9185 44.2262 75.8793 44.4044 75.8401 44.5826C75.8214 44.666 75.8214 44.666 75.8026 44.7512C75.7384 45.035 75.7384 45.035 75.7161 45.3241C75.7839 45.2674 75.8517 45.2111 75.9213 45.1526C77.748 43.6562 80.2857 42.6953 82.6729 42.7435C82.2208 44.609 81.3873 46.4755 80.0844 47.9048C80.0469 47.9467 80.0095 47.9889 79.9706 48.0322C78.7302 49.4062 77.0614 50.3037 75.1969 50.4759C74.7229 50.4974 74.2489 50.491 73.775 50.4854C73.7665 50.5414 73.758 50.5974 73.7492 50.6551C73.6849 50.9273 73.5797 51.1505 73.456 51.4016C73.4327 51.4491 73.4094 51.4967 73.3857 51.5456C73.3119 51.6963 73.2374 51.847 73.1632 51.9974C73.0884 52.1491 73.0138 52.3009 72.9397 52.4526C72.8726 52.59 72.8051 52.7266 72.7376 52.8636C72.6366 53.041 72.6366 53.041 72.6423 53.1467C72.7207 53.1048 72.7991 53.0629 72.88 53.0199C74.5813 52.1291 76.2491 51.8343 78.1634 51.8361C78.245 51.8361 78.245 51.8364 78.3283 51.8364C78.8927 51.8382 79.4455 51.8495 80.0035 51.9372C79.6185 53.7118 77.4757 55.7041 76.0096 56.6752C74.4951 57.6319 72.8669 58.1414 71.0699 58.0407C71.0084 58.0375 70.9466 58.034 70.8834 58.0308C70.6234 58.0136 70.3896 57.9886 70.1371 57.9217C69.9107 57.8625 69.7938 57.8365 69.5685 57.9048C69.2654 58.2005 69.0309 58.5284 68.7911 58.8759C68.6138 59.1248 68.417 59.3558 68.2186 59.5882C68.1179 59.7076 68.1179 59.7076 68.0155 59.8294C67.9674 59.8864 67.9191 59.9431 67.8696 60.0016C67.9643 59.9783 68.0586 59.9551 68.156 59.9308C69.8821 59.5382 71.7243 59.5107 73.4511 59.921C73.5228 59.9379 73.5945 59.9544 73.6683 59.972C74.137 60.0833 74.6032 60.2016 75.0691 60.3241C75.0691 60.7217 74.931 60.8618 74.6647 61.1305C74.51 61.2731 74.3521 61.4104 74.1921 61.5463C74.0158 61.6967 73.8449 61.8516 73.6736 62.0076C72.1185 63.3829 70.3808 64.3188 68.3549 64.7597C68.2903 64.7741 68.2253 64.7886 68.1582 64.8034C66.952 65.0178 65.488 64.922 64.3712 64.3931C64.1177 64.2755 63.9435 64.2005 63.6634 64.1949C63.3074 64.4034 63.0355 64.6667 62.7448 64.9558C62.5336 65.1562 62.3015 65.3252 62.0656 65.4956C61.8025 65.6798 61.8025 65.6798 61.5602 65.8886C61.6103 65.8893 61.6608 65.89 61.7128 65.891C64.0152 65.934 65.9973 66.4206 68.0314 67.5016C68.1391 67.5558 68.2468 67.6097 68.3549 67.6629C68.3457 67.8041 68.3457 67.8041 68.274 67.9854C68.1101 68.1086 67.9565 68.2079 67.7788 68.3079C67.6994 68.3537 67.6994 68.3537 67.6188 68.4005C67.4338 68.5058 67.2476 68.609 67.0608 68.7111C66.9884 68.7509 66.9163 68.7903 66.8418 68.8315C64.2197 70.2583 61.4482 71.134 58.4793 70.2903C57.7327 70.0639 57.1096 69.7051 56.464 69.2759C56.4107 69.2491 56.357 69.2224 56.3022 69.1949C56.0857 69.2812 56.0857 69.2812 55.8406 69.4107C55.7477 69.4576 55.6552 69.5044 55.5602 69.5526C55.462 69.6033 55.3638 69.6537 55.2656 69.7041C55.0749 69.8016 54.8838 69.8984 54.6927 69.9956C54.608 70.0393 54.5228 70.0826 54.4353 70.1276C54.2244 70.2308 54.0139 70.3213 53.7946 70.4048C53.7946 70.4315 53.7946 70.4579 53.7946 70.4854C53.874 70.4952 53.9535 70.5055 54.0354 70.5157C56.2987 70.8361 58.3748 71.9935 60.0231 73.5498C59.8843 73.8269 59.5544 73.8731 59.275 73.9734C59.2065 73.9981 59.138 74.0227 59.0677 74.0481C58.5634 74.2269 58.0548 74.3889 57.5409 74.5379C57.4444 74.566 57.4444 74.566 57.3466 74.5949C56.2394 74.9058 55.184 75.0435 54.0379 75.0375C53.8348 75.0368 53.6325 75.0393 53.4294 75.0417C51.6578 75.0495 50.0631 74.5315 48.6984 73.3886C48.5988 73.3065 48.5988 73.3065 48.4974 73.2227C48.0683 72.8583 48.0683 72.8583 47.9701 72.6629C47.6356 72.7685 47.3135 72.8924 46.99 73.0269C46.2017 73.3519 45.4013 73.6368 44.5929 73.9079C44.5406 73.9255 44.488 73.9435 44.4339 73.9618C43.8879 74.1467 43.3705 74.3167 42.793 74.3565C42.739 74.0791 42.6849 73.8019 42.6312 73.5248C42.6083 73.4065 42.6083 73.4065 42.5846 73.2861C42.5698 73.2104 42.5553 73.1347 42.5401 73.0569C42.5267 72.9872 42.5133 72.9174 42.4992 72.8456C42.4695 72.6629 42.4695 72.6629 42.4695 72.421C42.5415 72.4055 42.6136 72.39 42.6878 72.3741C42.9615 72.3153 43.2352 72.2565 43.5089 72.1974C43.6262 72.172 43.7434 72.147 43.8607 72.122C44.9468 71.8896 46.0187 71.6206 47.0804 71.2917C47.061 71.172 47.061 71.172 47.0412 71.0498C46.8208 69.4981 47.1094 67.8203 47.9955 66.5086C48.0926 66.3808 48.1922 66.2548 48.2936 66.1305C48.3469 66.0646 48.3999 65.9984 48.4547 65.9305C49.901 64.2301 52.2038 63.26 54.3607 62.8241C54.4957 62.822 54.6302 62.8217 54.7651 62.8241C54.5751 65.1798 53.6886 67.7069 51.934 69.3565C51.8806 69.4097 51.8273 69.4629 51.7722 69.5178C52.4955 69.3055 53.1609 68.978 53.8398 68.6558C53.9613 68.5984 54.0828 68.5414 54.2043 68.4843C54.4992 68.3453 54.7941 68.2058 55.0887 68.066C55.042 67.7192 54.9809 67.3917 54.8856 67.0548C54.4593 65.4949 54.5522 63.8326 55.3366 62.4058C55.8996 61.4414 56.6141 60.6636 57.5154 60.0016C57.596 59.9421 57.6768 59.8826 57.7598 59.8213C59.8822 58.3079 59.8822 58.3079 60.6701 58.3079C60.7959 58.8407 60.7708 59.3868 60.7715 59.9308C60.7715 59.9889 60.7715 60.047 60.7715 60.1069C60.7687 62.0431 60.3622 63.6136 59.4569 65.3241C59.4301 65.3773 59.4036 65.4305 59.3761 65.4854C60.3816 64.8016 61.3525 64.0847 62.2881 63.3079C62.1836 63.0283 62.0603 62.7875 61.8989 62.5368C61.0629 61.1607 60.7849 59.6167 61.0897 58.0407C61.5913 56.0132 62.9991 54.409 64.5934 53.1217C64.6411 53.0822 64.6884 53.0431 64.7375 53.0026C64.8742 52.8956 64.8742 52.8956 65.1193 52.7435C65.2966 52.7741 65.2966 52.7741 65.4428 52.8241C66.145 55.1079 66.5745 57.5012 65.8472 59.8403C65.8472 59.8935 65.8472 59.9467 65.8472 60.0016C66.0369 59.7872 66.2255 59.572 66.4137 59.3565C66.4681 59.2942 66.4681 59.2942 66.5239 59.2305C67.0827 58.5931 67.6135 57.9453 68.1122 57.2597C67.7908 56.8812 67.7908 56.8812 67.4553 56.515C66.0394 55.0174 65.6947 53.4597 65.7519 51.4629C65.7819 50.9463 65.9062 50.4857 66.0902 50.0016C66.1386 49.8653 66.1386 49.8653 66.1884 49.7262C66.6129 48.6386 67.2914 47.6667 68.0494 46.784C68.2041 46.6083 68.2041 46.6083 68.3549 46.3724C68.4351 46.3724 68.5152 46.3724 68.5979 46.3724C68.7374 46.5703 68.8582 46.7625 68.9769 46.9724C69.0125 47.0343 69.0482 47.0963 69.0846 47.16C70.0082 48.7921 70.6905 50.4995 70.7513 52.3907C70.7545 52.4717 70.7577 52.5526 70.7608 52.6361C70.7686 52.8333 70.7753 53.0301 70.7817 53.2273C71.3415 52.2526 71.8487 51.2643 72.3188 50.2435C72.2103 50.1688 72.2103 50.1688 72.0994 50.0924C70.3706 48.8907 69.0334 47.51 68.6293 45.3741C68.3235 43.3361 69.0037 41.291 69.9729 39.5178C71.4344 40.1262 72.7309 42.446 73.3328 43.8269C73.6245 44.5347 73.8071 45.2164 73.9367 45.9692C74.0392 45.5646 74.1412 45.16 74.2433 44.7555C74.2779 44.6178 74.3125 44.4805 74.3475 44.3428C74.3976 44.1449 74.4474 43.9467 74.4976 43.7484C74.5131 43.6875 74.5283 43.6262 74.5446 43.5636C74.6262 43.2379 74.6954 42.9146 74.7455 42.5822C74.7042 42.5657 74.6625 42.5491 74.6198 42.5319C72.5928 41.7157 70.8046 40.6565 69.9086 38.5611C69.3396 37.128 69.3152 35.6653 69.5126 34.1598C69.5222 34.0863 69.5317 34.0128 69.5416 33.9371C69.6094 33.4643 69.7242 33.0294 69.892 32.5822C70.2483 32.7066 70.551 32.893 70.8625 33.1013C70.9155 33.1366 70.9685 33.1719 71.0233 33.2082C71.57 33.5798 72.0655 34.0013 72.5614 34.437C72.6221 34.4875 72.6825 34.538 72.7451 34.5901C73.4408 35.173 74.0081 35.8569 74.5029 36.6143C74.5463 36.6801 74.5898 36.7456 74.6343 36.8132C74.9363 37.2893 75.1383 37.7727 75.3117 38.3079C75.4226 37.0738 75.4007 35.8361 75.3926 34.5983C75.3022 34.5934 75.3022 34.5934 75.2103 34.5885C74.6392 34.5505 74.1197 34.4611 73.5726 34.2959C73.462 34.2631 73.462 34.2631 73.3494 34.2297C72.3505 33.9276 71.5318 33.5316 70.7008 32.9048C70.64 32.8591 70.5793 32.8135 70.5164 32.7664C68.9059 31.4635 68.2581 29.3636 68.0487 27.3893C68.0056 26.8624 68.0126 26.3358 68.0314 25.808C68.1426 25.8311 68.2539 25.8548 68.3651 25.8785C68.458 25.8982 68.458 25.8982 68.5527 25.9182C68.7886 25.9764 69.0154 26.0517 69.2449 26.1306C69.1686 26.0943 69.0924 26.058 69.0136 26.0206C68.245 25.6419 67.6648 25.2003 67.0608 24.5983C66.9827 24.5306 66.9827 24.5306 66.9033 24.4616C65.5912 23.2994 64.8258 21.2022 64.5531 19.5176C66.9079 19.7447 69.5572 20.4332 71.4142 21.96C71.5887 22.1128 71.5887 22.1128 71.8335 22.179C71.6897 21.8906 71.546 21.6023 71.4019 21.3141C71.3291 21.1685 71.2567 21.0228 71.184 20.8771C70.8979 20.3027 70.8979 20.3027 70.586 19.7423C70.4581 19.5176 70.4581 19.5176 70.4581 19.3563C70.3706 19.3787 70.2826 19.4011 70.1922 19.4241C70.0753 19.4536 69.9584 19.4831 69.8415 19.5126C69.7839 19.5273 69.726 19.542 69.6666 19.5572C69.6098 19.5715 69.5529 19.5858 69.4946 19.6005C69.4427 19.6136 69.3912 19.6267 69.3378 19.6402C67.3045 20.0935 65.0974 19.7403 63.3396 18.6306C61.7809 17.5488 60.5172 16.0731 59.6996 14.3563C59.6996 14.2765 59.6996 14.1967 59.6996 14.1144C62.3969 13.6773 65.7928 14.2091 68.0466 15.7979C68.1218 15.8544 68.1967 15.911 68.274 15.9693C67.5959 14.8531 66.8072 13.8063 65.9952 12.7841C65.8472 12.5822 65.8472 12.5822 65.7663 12.3402C65.6706 12.3724 65.5746 12.4045 65.4757 12.4376C63.2576 13.1678 60.9968 13.4315 58.8099 12.4209C58.1417 12.0854 57.5169 11.6991 56.9493 11.2112C56.8359 11.1158 56.8359 11.1158 56.7204 11.0184C56.0896 10.4732 55.5828 9.86364 55.0887 9.19508C55.029 9.11596 54.9689 9.03684 54.9075 8.95533C54.5225 8.43219 54.5225 8.43219 54.5225 8.06603C57.1396 7.67987 59.6756 7.74321 62.2072 8.5499C62.0405 8.38163 61.8738 8.21367 61.7068 8.04589C61.6598 7.99856 61.6132 7.95128 61.5651 7.90254C61.4299 7.76723 61.2932 7.6342 61.1558 7.50152C61.0922 7.43864 61.029 7.37575 60.9636 7.31092C60.6613 7.12304 60.3883 7.12205 60.0383 7.10335C58.0936 6.94459 56.4096 6.06631 55.1219 4.60364C54.099 3.30619 53.387 1.63339 53.1472 0.00152227ZM69.5685 26.2918C69.7881 26.4642 70.005 26.5995 70.2554 26.7231C71.4813 27.3393 72.5356 28.0026 73.532 28.9531C73.5835 29.0001 73.6347 29.0471 73.6877 29.0955C74.0257 29.4148 74.286 29.7662 74.5449 30.1518C74.6615 30.3306 74.6615 30.3306 74.8264 30.4854C74.7773 29.8777 74.6435 29.3137 74.4828 28.7263C74.4595 28.6377 74.4361 28.5491 74.4121 28.4578C74.2468 27.8471 74.0328 27.2728 73.775 26.6951C73.722 26.6959 73.669 26.6968 73.6146 26.6976C72.3622 26.715 71.1984 26.7041 69.9895 26.3391C69.8026 26.2815 69.8026 26.2815 69.5685 26.2918ZM74.8264 30.4854C74.9073 30.6467 74.9073 30.6467 74.9073 30.6467L74.8264 30.4854Z" fill="#2D2926"/>
</g>
<defs>
<clipPath id="clip0_424_359">
<rect width="83" height="75" fill="white"/>
</clipPath>
</defs>
</svg>
